# xmcd
#
# Track frame offsets:
#	150
#	13518
#	26514
#	35140
#	45221
#	55104
#	62272
#	71906
#	82520
#	94193
#	103617
#	113603
#	126031
#	141370
#	156525
#	170788
#	179923
#	195179
#	204752
#	216213
#	229434
#	240190
#	249555
#	261874
#	270394
#	283012
#	297295
#	310569
#
# Disc length: 4348 seconds
#
# Revision: 0
# Processed by: cddbd v1.5.2PL0 Copyright (c) Steve Scherf et al.
# Submitted via: EasyCDDAExtractor 16.0.6.1
#
DISCID=8610fa1c
DTITLE=marty robins - The Complete Recordings: 1961-1963 disk 1
DYEAR=1900
DGENRE=Country
TTITLE0=A Little Sentimental
TTITLE1=Hurt
TTITLE2=To Each His Own
TTITLE3=I Can't Help It
TTITLE4=Answer Me My Love
TTITLE5=Clara
TTITLE6=Half As Much
TTITLE7=Unchained Melody
TTITLE8=Are You Sincere
TTITLE9=Guess I'll Be Going
TTITLE10=To Think You've Chosen Me
TTITLE11=Too Young
TTITLE12=I'm in the Mood for Love
TTITLE13=Misty
TTITLE14=Looking Back
TTITLE15=September in the Rain
TTITLE16=Don't Throw Me Away
TTITLE17=Pennies from Heaven
TTITLE18=Summertime
TTITLE19=All the Way
TTITLE20=It Had to Be You
TTITLE21=I'm Having a Ball
TTITLE22=If I Could Cry
TTITLE23=On the Sunny Side of the Street
TTITLE24=It's Your World
TTITLE25=Don't Worry
TTITLE26=I Told the Brook
TTITLE27=Jimmy Martinez
EXTD=
EXTT0=
EXTT1=
EXTT2=
EXTT3=
EXTT4=
EXTT5=
EXTT6=
EXTT7=
EXTT8=
EXTT9=
EXTT10=
EXTT11=
EXTT12=
EXTT13=
EXTT14=
EXTT15=
EXTT16=
EXTT17=
EXTT18=
EXTT19=
EXTT20=
EXTT21=
EXTT22=
EXTT23=
EXTT24=
EXTT25=
EXTT26=
EXTT27=
PLAYORDER=
